{
  "accessors": [
    {
      "bufferView": 2,
      "componentType": 5126,
      "count": 1044,
      "max": [
        32.30591583251953,
        32.32111358642578,
        36.492923736572266
      ],
      "min": [
        -32.14019012451172,
        -32.273048400878906,
        -5.314860820770264
      ],
      "type": "VEC3"
    },
    {
      "bufferView": 2,
      "byteOffset": 12528,
      "componentType": 5126,
      "count": 1044,
      "max": [
        0.9910562634468079,
        0.9967838525772095,
        0.9970690011978149
      ],
      "min": [
        -0.9890954494476318,
        -0.9990032315254211,
        -0.9973210096359253
      ],
      "type": "VEC3"
    },
    {
      "bufferView": 3,
      "componentType": 5126,
      "count": 1044,
      "max": [
        0.9999960064888,
        0.9975913763046265,
        0.993189811706543,
        1.0
      ],
      "min": [
        -0.9998171925544739,
        -0.9825258255004883,
        -0.9957446455955505,
        -1.0
      ],
      "type": "VEC4"
    },
    {
      "bufferView": 1,
      "componentType": 5126,
      "count": 1044,
      "max": [
        0.9871929287910461,
        0.9745628833770752
      ],
      "min": [
        0.0088593028485775,
        0.006753983441740274
      ],
      "type": "VEC2"
    },
    {
      "bufferView": 1,
      "byteOffset": 8352,
      "componentType": 5126,
      "count": 1044,
      "max": [
        0.9871929287910461,
        0.9745628833770752
      ],
      "min": [
        0.0088593028485775,
        0.006753983441740274
      ],
      "type": "VEC2"
    },
    {
      "bufferView": 1,
      "byteOffset": 16704,
      "componentType": 5126,
      "count": 1044,
      "max": [
        0.9871929287910461,
        0.9745628833770752
      ],
      "min": [
        0.0088593028485775,
        0.006753983441740274
      ],
      "type": "VEC2"
    },
    {
      "bufferView": 0,
      "componentType": 5125,
      "count": 5112,
      "type": "SCALAR"
    }
  ],
  "asset": {
    "extras": {
      "author": "bariacg (https://sketchfab.com/bariacg)",
      "license": "SKETCHFAB Editorial (https://sketchfab.com/licenses)",
      "source": "https://sketchfab.com/3d-models/wizard-hat-df240b914a3c4f78b9d700b6b885a399",
      "title": "Wizard Hat"
    },
    "generator": "Sketchfab-12.63.0",
    "version": "2.0"
  },
  "bufferViews": [
    {
      "buffer": 0,
      "byteLength": 20448,
      "name": "floatBufferViews",
      "target": 34963
    },
    {
      "buffer": 0,
      "byteLength": 25056,
      "byteOffset": 20448,
      "byteStride": 8,
      "name": "floatBufferViews",
      "target": 34962
    },
    {
      "buffer": 0,
      "byteLength": 25056,
      "byteOffset": 45504,
      "byteStride": 12,
      "name": "floatBufferViews",
      "target": 34962
    },
    {
      "buffer": 0,
      "byteLength": 16704,
      "byteOffset": 70560,
      "byteStride": 16,
      "name": "floatBufferViews",
      "target": 34962
    }
  ],
  "buffers": [
    {
      "byteLength": 87264,
      "uri": "scene.bin"
    }
  ],
  "images": [
    {
      "uri": "textures/WizardHat_baseColor.png"
    },
    {
      "uri": "textures/WizardHat_metallicRoughness.png"
    },
    {
      "uri": "textures/WizardHat_normal.png"
    }
  ],
  "materials": [
    {
      "doubleSided": true,
      "name": "WizardHat",
      "normalTexture": {
        "index": 2
      },
      "pbrMetallicRoughness": {
        "baseColorTexture": {
          "index": 0
        },
        "metallicFactor": 0.0,
        "metallicRoughnessTexture": {
          "index": 1
        }
      }
    }
  ],
  "meshes": [
    {
      "name": "WizardHat_WizardHat_0",
      "primitives": [
        {
          "attributes": {
            "NORMAL": 1,
            "POSITION": 0,
            "TANGENT": 2,
            "TEXCOORD_0": 3,
            "TEXCOORD_1": 4,
            "TEXCOORD_2": 5
          },
          "indices": 6,
          "material": 0,
          "mode": 4
        }
      ]
    }
  ],
  "nodes": [
    {
      "children": [
        1
      ],
      "matrix": [
        1.0,
        0.0,
        0.0,
        0.0,
        0.0,
        2.220446049250313e-16,
        -1.0,
        0.0,
        0.0,
        1.0,
        2.220446049250313e-16,
        0.0,
        0.0,
        0.0,
        0.0,
        1.0
      ],
      "name": "Sketchfab_model"
    },
    {
      "children": [
        2
      ],
      "matrix": [
        1.0,
        0.0,
        0.0,
        0.0,
        0.0,
        0.0,
        1.0,
        0.0,
        0.0,
        -1.0,
        0.0,
        0.0,
        0.0,
        0.0,
        0.0,
        1.0
      ],
      "name": "01a0bb633ec5469d8e604a2f54802f55.fbx"
    },
    {
      "children": [
        3
      ],
      "name": "RootNode"
    },
    {
      "children": [
        4
      ],
      "matrix": [
        1.0,
        0.0,
        0.0,
        0.0,
        0.0,
        2.220446049250313e-16,
        -1.0,
        0.0,
        0.0,
        1.0,
        2.220446049250313e-16,
        0.0,
        0.0,
        0.0,
        0.0,
        1.0
      ],
      "name": "WizardHat"
    },
    {
      "mesh": 0,
      "name": "WizardHat_WizardHat_0"
    }
  ],
  "samplers": [
    {
      "magFilter": 9729,
      "minFilter": 9987,
      "wrapS": 10497,
      "wrapT": 10497
    }
  ],
  "scene": 0,
  "scenes": [
    {
      "name": "Sketchfab_Scene",
      "nodes": [
        0
      ]
    }
  ],
  "textures": [
    {
      "sampler": 0,
      "source": 0
    },
    {
      "sampler": 0,
      "source": 1
    },
    {
      "sampler": 0,
      "source": 2
    }
  ]
}
