{"accessors" : [{"bufferView" : 0, "byteOffset" : 0, "componentType" : 5123, "count" : 1152, "type" : "SCALAR", "max" : [1151], "min" : [0]}, {"bufferView" : 1, "byteOffset" : 0, "componentType" : 5126, "count" : 1152, "type" : "VEC3", "max" : [0.36724090576171875, 0.10361865162849426, 1.014533519744873], "min" : [-0.2997969388961792, -0.12668710947036743, -1.0103130340576172], "name" : "POSITION"}, {"bufferView" : 1, "byteOffset" : 12, "componentType" : 5126, "count" : 1152, "type" : "VEC3", "max" : [0.9999866485595703, 0.9995982646942139, 0.9981152415275574], "min" : [-0.9999908208847046, -0.9994093775749207, -0.9331250786781311], "name" : "NORMAL"}, {"bufferView" : 1, "byteOffset" : 24, "componentType" : 5126, "count" : 1152, "type" : "VEC2", "max" : [0, -0], "min" : [0, -0], "name" : "TEXCOORD_0"}, {"bufferView" : 0, "byteOffset" : 2304, "componentType" : 5123, "count" : 1056, "type" : "SCALAR", "max" : [1055], "min" : [0]}, {"bufferView" : 2, "byteOffset" : 0, "componentType" : 5126, "count" : 1056, "type" : "VEC3", "max" : [0.4012344777584076, 0.1005101352930069, 1.221483588218689], "min" : [-0.4012344777584076, -0.10051040351390839, 0.9971586465835571], "name" : "POSITION"}, {"bufferView" : 2, "byteOffset" : 12, "componentType" : 5126, "count" : 1056, "type" : "VEC3", "max" : [0.9989639520645142, 0.9999042749404907, 0.9941975474357605], "min" : [-0.9989639520645142, -0.9999151229858398, -0.9999061822891235], "name" : "NORMAL"}, {"bufferView" : 2, "byteOffset" : 24, "componentType" : 5126, "count" : 1056, "type" : "VEC2", "max" : [0.8750001192092896, -0], "min" : [0.1250000149011612, -1.0000001192092896], "name" : "TEXCOORD_0"}, {"bufferView" : 0, "byteOffset" : 4416, "componentType" : 5123, "count" : 2016, "type" : "SCALAR", "max" : [2015], "min" : [0]}, {"bufferView" : 3, "byteOffset" : 0, "componentType" : 5126, "count" : 2016, "type" : "VEC3", "max" : [1.1281678676605225, 1.0269359350204468, 2.0347704887390137], "min" : [-0.6048716902732849, -0.5562886595726013, 1.1329923868179321], "name" : "POSITION"}, {"bufferView" : 3, "byteOffset" : 12, "componentType" : 5126, "count" : 2016, "type" : "VEC3", "max" : [0.9989184737205505, 0.9974860548973083, 0.9985477924346924], "min" : [-0.9992229342460632, -0.9967284202575684, -0.9994653463363647], "name" : "NORMAL"}, {"bufferView" : 3, "byteOffset" : 24, "componentType" : 5126, "count" : 2016, "type" : "VEC2", "max" : [0, -0], "min" : [0, -0], "name" : "TEXCOORD_0"}], "asset" : {"generator" : "Aspose.3D 22.10", "version" : "2.0"}, "buffers" : [{"uri" : "data:application/octet-stream;base64,", "byteLength" : 143632}], "bufferViews" : [{"buffer" : 0, "byteOffset" : 0, "byteLength" : 8448, "target" : 34963}, {"buffer" : 0, "byteOffset" : 8452, "byteLength" : 36864, "byteStride" : 32, "target" : 34962}, {"buffer" : 0, "byteOffset" : 45320, "byteLength" : 33792, "byteStride" : 32, "target" : 34962}, {"buffer" : 0, "byteOffset" : 79116, "byteLength" : 64512, "byteStride" : 32, "target" : 34962}], "meshes" : [{"primitives" : [{"attributes" : {"POSITION" : 1, "NORMAL" : 2, "TEXCOORD_0" : 3}, "indices" : 0, "mode" : 4}], "name" : ""}, {"primitives" : [{"attributes" : {"POSITION" : 5, "NORMAL" : 6, "TEXCOORD_0" : 7}, "indices" : 4, "mode" : 4}], "name" : ""}, {"primitives" : [{"attributes" : {"POSITION" : 9, "NORMAL" : 10, "TEXCOORD_0" : 11}, "indices" : 8, "mode" : 4}], "name" : ""}], "nodes" : [{"matrix" : [3.696151, 0, 0, 0, 0, -1.6156389214803874E-07, -3.6961509999999964, 0, 0, 3.6961509999999964, -1.6156389214803874E-07, 0, -0.27670010924339294, -0.3545944392681122, 0.7340927124023438, 1], "mesh" : 0, "name" : "Circle.001"}, {"matrix" : [3.696151, 0, 0, 0, 0, -1.6156389214803874E-07, -3.6961509999999964, 0, 0, 3.6961509999999964, -1.6156389214803874E-07, 0, -0.011299511417746544, -0.3545944392681122, 0.6602758169174194, 1], "mesh" : 1, "name" : "Cube.003"}, {"matrix" : [3.696151, 0, 0, 0, 0, -1.6156389214803874E-07, -3.6961509999999964, 0, 0, 3.6961509999999964, -1.6156389214803874E-07, 0, -0.011299511417746544, -0.3545944392681122, -0.60245281457901, 1], "mesh" : 2, "name" : "Circle.002"}], "scene" : 0, "scenes" : [{"nodes" : [0, 1, 2]}]}